<?xml version="1.0" encoding="UTF-8" standalone="no"?>
<svg xmlns="http://www.w3.org/2000/svg" xmlns:xlink="http://www.w3.org/1999/xlink" class="card" face="4H" height="3.5in" preserveAspectRatio="none" viewBox="-120 -168 240 336" width="2.5in"><defs><symbol id="VH4" viewBox="-600 -600 1200 1200" preserveAspectRatio="xMinYMid"><path d="M50 460L250 460M150 460L150 -460L-300 175L-300 200L270 200" stroke="#ff2600" stroke-width="160" stroke-linecap="square" stroke-miterlimit="1.5" fill="none"></path></symbol><symbol id="SH4" viewBox="-600 -600 1200 1200" preserveAspectRatio="xMinYMid"><path d="M0 -300C0 -400 100 -500 200 -500C300 -500 400 -400 400 -250C400 0 0 400 0 500C0 400 -400 0 -400 -250C-400 -400 -300 -500 -200 -500C-100 -500 0 -400 -0 -300Z" fill="#ff2600"></path></symbol></defs><rect width="239" height="335" x="-119.5" y="-167.5" rx="12" ry="12" fill="white" stroke="black"></rect><use xlink:href="#SH4" height="192" width="192" x="-96" y="-64"></use><use xlink:href="#VH4" height="90" width="90" x="-124" y="-158"></use><use xlink:href="#SH4" height="96" width="96" x="20" y="-158"></use></svg>