<?xml version="1.0" encoding="UTF-8" standalone="no"?>
<svg xmlns="http://www.w3.org/2000/svg" xmlns:xlink="http://www.w3.org/1999/xlink" class="card" face="6D" height="3.5in" preserveAspectRatio="none" viewBox="-120 -168 240 336" width="2.5in"><defs><symbol id="VD6" viewBox="-600 -600 1200 1200" preserveAspectRatio="xMinYMid"><path d="M-250 100A250 250 0 0 1 250 100L250 210A250 250 0 0 1 -250 210L-250 -210A250 250 0 0 1 0 -460C150 -460 180 -400 200 -375" stroke="#ff2600" stroke-width="160" stroke-linecap="square" stroke-miterlimit="1.5" fill="none"></path></symbol><symbol id="SD6" viewBox="-600 -600 1200 1200" preserveAspectRatio="xMinYMid"><path d="M-400 0C-350 0 0 -450 0 -500C0 -450 350 0 400 0C350 0 0 450 0 500C0 450 -350 0 -400 0Z" fill="#ff2600"></path></symbol></defs><rect width="239" height="335" x="-119.5" y="-167.5" rx="12" ry="12" fill="white" stroke="black"></rect><use xlink:href="#SD6" height="192" width="192" x="-96" y="-64"></use><use xlink:href="#VD6" height="90" width="90" x="-124" y="-158"></use><use xlink:href="#SD6" height="96" width="96" x="20" y="-158"></use></svg>