<?xml version="1.0" encoding="UTF-8" standalone="no"?>
<svg xmlns="http://www.w3.org/2000/svg" xmlns:xlink="http://www.w3.org/1999/xlink" class="card" face="TD" height="3.5in" preserveAspectRatio="none" viewBox="-120 -168 240 336" width="2.5in"><defs><symbol id="VDT" viewBox="-600 -600 1200 1200" preserveAspectRatio="xMinYMid"><path d="M-260 430L-260 -430M-50 0L-50 -310A150 150 0 0 1 250 -310L250 310A150 150 0 0 1 -50 310Z" stroke="#ff2600" stroke-width="160" stroke-linecap="square" stroke-miterlimit="1.5" fill="none"></path></symbol><symbol id="SDT" viewBox="-600 -600 1200 1200" preserveAspectRatio="xMinYMid"><path d="M-400 0C-350 0 0 -450 0 -500C0 -450 350 0 400 0C350 0 0 450 0 500C0 450 -350 0 -400 0Z" fill="#ff2600"></path></symbol></defs><rect width="239" height="335" x="-119.5" y="-167.5" rx="12" ry="12" fill="white" stroke="black"></rect><use xlink:href="#SDT" height="192" width="192" x="-96" y="-64"></use><use xlink:href="#VDT" height="90" width="90" x="-124" y="-158"></use><use xlink:href="#SDT" height="96" width="96" x="20" y="-158"></use></svg>